<svg xmlns="http://www.w3.org/2000/svg" xmlns:xlink="http://www.w3.org/1999/xlink" width="170" zoomAndPan="magnify" viewBox="0 0 127.5 127.499994" height="170" preserveAspectRatio="xMidYMid meet" version="1.0"><defs><g/><clipPath id="id1"><path d="M 0 0 L 127 0 L 127 127 L 0 127 Z M 0 0 " clip-rule="nonzero"/></clipPath><clipPath id="id2"><path d="M 59 42.972656 L 68 42.972656 L 68 56 L 59 56 Z M 59 42.972656 " clip-rule="nonzero"/></clipPath><clipPath id="id3"><path d="M 45.347656 43 L 68 43 L 68 66 L 45.347656 66 Z M 45.347656 43 " clip-rule="nonzero"/></clipPath><clipPath id="id4"><path d="M 67.964844 43.449219 C 67.976562 44.980469 67.800781 50.03125 65.355469 54.964844 C 64.585938 56.515625 63.59375 58.058594 62.308594 59.472656 C 58.980469 63.144531 53.703125 65.96875 45.347656 65.96875 L 45.347656 57.347656 C 51.511719 57.347656 56 56.386719 59.265625 54.964844 C 60.429688 54.457031 61.4375 53.894531 62.3125 53.289062 C 67.453125 49.746094 67.945312 44.945312 67.964844 43.449219 Z M 67.964844 43.449219 " clip-rule="nonzero"/></clipPath><linearGradient x1="-0.0000137381" gradientTransform="matrix(0.0940379, 0, 0, 0.0956044, 45.349485, 42.984559)" y1="122.636002" x2="240.6" gradientUnits="userSpaceOnUse" y2="122.636002" id="id5"><stop stop-opacity="1" stop-color="rgb(85.099792%, 85.099792%, 85.099792%)" offset="0"/><stop stop-opacity="1" stop-color="rgb(85.290527%, 85.290527%, 85.290527%)" offset="0.0625"/><stop stop-opacity="1" stop-color="rgb(85.603333%, 85.603333%, 85.603333%)" offset="0.078125"/><stop stop-opacity="1" stop-color="rgb(85.847473%, 85.847473%, 85.847473%)" offset="0.09375"/><stop stop-opacity="1" stop-color="rgb(86.091614%, 86.091614%, 86.091614%)" offset="0.109375"/><stop stop-opacity="1" stop-color="rgb(86.335754%, 86.335754%, 86.335754%)" offset="0.125"/><stop stop-opacity="1" stop-color="rgb(86.579895%, 86.579895%, 86.579895%)" offset="0.140625"/><stop stop-opacity="1" stop-color="rgb(86.824036%, 86.824036%, 86.824036%)" offset="0.15625"/><stop stop-opacity="1" stop-color="rgb(87.068176%, 87.068176%, 87.068176%)" offset="0.171875"/><stop stop-opacity="1" stop-color="rgb(87.312317%, 87.312317%, 87.312317%)" offset="0.1875"/><stop stop-opacity="1" stop-color="rgb(87.556458%, 87.556458%, 87.556458%)" offset="0.203125"/><stop stop-opacity="1" stop-color="rgb(87.800598%, 87.800598%, 87.800598%)" offset="0.21875"/><stop stop-opacity="1" stop-color="rgb(88.044739%, 88.044739%, 88.044739%)" offset="0.234375"/><stop stop-opacity="1" stop-color="rgb(88.288879%, 88.288879%, 88.288879%)" offset="0.25"/><stop stop-opacity="1" stop-color="rgb(88.53302%, 88.53302%, 88.53302%)" offset="0.265625"/><stop stop-opacity="1" stop-color="rgb(88.777161%, 88.777161%, 88.777161%)" offset="0.28125"/><stop stop-opacity="1" stop-color="rgb(89.021301%, 89.021301%, 89.021301%)" offset="0.296875"/><stop stop-opacity="1" stop-color="rgb(89.265442%, 89.265442%, 89.265442%)" offset="0.3125"/><stop stop-opacity="1" stop-color="rgb(89.509583%, 89.509583%, 89.509583%)" offset="0.328125"/><stop stop-opacity="1" stop-color="rgb(89.753723%, 89.753723%, 89.753723%)" offset="0.34375"/><stop stop-opacity="1" stop-color="rgb(89.997864%, 89.997864%, 89.997864%)" offset="0.359375"/><stop stop-opacity="1" stop-color="rgb(90.242004%, 90.242004%, 90.242004%)" offset="0.375"/><stop stop-opacity="1" stop-color="rgb(90.486145%, 90.486145%, 90.486145%)" offset="0.390625"/><stop stop-opacity="1" stop-color="rgb(90.730286%, 90.730286%, 90.730286%)" offset="0.40625"/><stop stop-opacity="1" stop-color="rgb(90.974426%, 90.974426%, 90.974426%)" offset="0.421875"/><stop stop-opacity="1" stop-color="rgb(91.218567%, 91.218567%, 91.218567%)" offset="0.4375"/><stop stop-opacity="1" stop-color="rgb(91.462708%, 91.462708%, 91.462708%)" offset="0.453125"/><stop stop-opacity="1" stop-color="rgb(91.706848%, 91.706848%, 91.706848%)" offset="0.46875"/><stop stop-opacity="1" stop-color="rgb(91.950989%, 91.950989%, 91.950989%)" offset="0.484375"/><stop stop-opacity="1" stop-color="rgb(92.195129%, 92.195129%, 92.195129%)" offset="0.5"/><stop stop-opacity="1" stop-color="rgb(92.43927%, 92.43927%, 92.43927%)" offset="0.515625"/><stop stop-opacity="1" stop-color="rgb(92.683411%, 92.683411%, 92.683411%)" offset="0.53125"/><stop stop-opacity="1" stop-color="rgb(92.927551%, 92.927551%, 92.927551%)" offset="0.546875"/><stop stop-opacity="1" stop-color="rgb(93.171692%, 93.171692%, 93.171692%)" offset="0.5625"/><stop stop-opacity="1" stop-color="rgb(93.415833%, 93.415833%, 93.415833%)" offset="0.578125"/><stop stop-opacity="1" stop-color="rgb(93.659973%, 93.659973%, 93.659973%)" offset="0.59375"/><stop stop-opacity="1" stop-color="rgb(93.904114%, 93.904114%, 93.904114%)" offset="0.609375"/><stop stop-opacity="1" stop-color="rgb(94.148254%, 94.148254%, 94.148254%)" offset="0.625"/><stop stop-opacity="1" stop-color="rgb(94.392395%, 94.392395%, 94.392395%)" offset="0.640625"/><stop stop-opacity="1" stop-color="rgb(94.636536%, 94.636536%, 94.636536%)" offset="0.65625"/><stop stop-opacity="1" stop-color="rgb(94.880676%, 94.880676%, 94.880676%)" offset="0.671875"/><stop stop-opacity="1" stop-color="rgb(95.124817%, 95.124817%, 95.124817%)" offset="0.6875"/><stop stop-opacity="1" stop-color="rgb(95.368958%, 95.368958%, 95.368958%)" offset="0.703125"/><stop stop-opacity="1" stop-color="rgb(95.613098%, 95.613098%, 95.613098%)" offset="0.71875"/><stop stop-opacity="1" stop-color="rgb(95.857239%, 95.857239%, 95.857239%)" offset="0.734375"/><stop stop-opacity="1" stop-color="rgb(96.101379%, 96.101379%, 96.101379%)" offset="0.75"/><stop stop-opacity="1" stop-color="rgb(96.34552%, 96.34552%, 96.34552%)" offset="0.765625"/><stop stop-opacity="1" stop-color="rgb(96.589661%, 96.589661%, 96.589661%)" offset="0.78125"/><stop stop-opacity="1" stop-color="rgb(96.833801%, 96.833801%, 96.833801%)" offset="0.796875"/><stop stop-opacity="1" stop-color="rgb(97.077942%, 97.077942%, 97.077942%)" offset="0.8125"/><stop stop-opacity="1" stop-color="rgb(97.322083%, 97.322083%, 97.322083%)" offset="0.828125"/><stop stop-opacity="1" stop-color="rgb(97.566223%, 97.566223%, 97.566223%)" offset="0.84375"/><stop stop-opacity="1" stop-color="rgb(97.810364%, 97.810364%, 97.810364%)" offset="0.859375"/><stop stop-opacity="1" stop-color="rgb(98.054504%, 98.054504%, 98.054504%)" offset="0.875"/><stop stop-opacity="1" stop-color="rgb(98.298645%, 98.298645%, 98.298645%)" offset="0.890625"/><stop stop-opacity="1" stop-color="rgb(98.542786%, 98.542786%, 98.542786%)" offset="0.90625"/><stop stop-opacity="1" stop-color="rgb(98.786926%, 98.786926%, 98.786926%)" offset="0.921875"/><stop stop-opacity="1" stop-color="rgb(99.031067%, 99.031067%, 99.031067%)" offset="0.9375"/><stop stop-opacity="1" stop-color="rgb(99.275208%, 99.275208%, 99.275208%)" offset="0.953125"/><stop stop-opacity="1" stop-color="rgb(99.519348%, 99.519348%, 99.519348%)" offset="0.96875"/><stop stop-opacity="1" stop-color="rgb(99.819946%, 99.819946%, 99.819946%)" offset="1"/></linearGradient><clipPath id="id6"><path d="M 59 65 L 68 65 L 68 77.472656 L 59 77.472656 Z M 59 65 " clip-rule="nonzero"/></clipPath><clipPath id="id7"><path d="M 59 54 L 82.097656 54 L 82.097656 77 L 59 77 Z M 59 54 " clip-rule="nonzero"/></clipPath><clipPath id="id8"><path d="M 59.480469 76.992188 C 59.46875 75.460938 59.644531 70.410156 62.089844 65.476562 C 62.859375 63.925781 63.851562 62.382812 65.136719 60.96875 C 68.464844 57.300781 73.742188 54.476562 82.097656 54.476562 L 82.097656 63.09375 C 75.933594 63.09375 71.449219 64.054688 68.179688 65.476562 C 67.019531 65.984375 66.007812 66.550781 65.132812 67.152344 C 59.992188 70.695312 59.503906 75.496094 59.480469 76.992188 Z M 59.480469 76.992188 " clip-rule="nonzero"/></clipPath><linearGradient x1="167.432048" gradientTransform="matrix(-0.0940379, 0.000000000000000012, -0.000000000000000012, -0.0956044, 97.841617, 62.122261)" y1="-37.771" x2="408.042068" gradientUnits="userSpaceOnUse" y2="-37.771" id="id9"><stop stop-opacity="1" stop-color="rgb(85.099792%, 85.099792%, 85.099792%)" offset="0"/><stop stop-opacity="1" stop-color="rgb(85.289001%, 85.289001%, 85.289001%)" offset="0.0625"/><stop stop-opacity="1" stop-color="rgb(85.601807%, 85.601807%, 85.601807%)" offset="0.078125"/><stop stop-opacity="1" stop-color="rgb(85.845947%, 85.845947%, 85.845947%)" offset="0.09375"/><stop stop-opacity="1" stop-color="rgb(86.090088%, 86.090088%, 86.090088%)" offset="0.109375"/><stop stop-opacity="1" stop-color="rgb(86.335754%, 86.335754%, 86.335754%)" offset="0.125"/><stop stop-opacity="1" stop-color="rgb(86.579895%, 86.579895%, 86.579895%)" offset="0.140625"/><stop stop-opacity="1" stop-color="rgb(86.824036%, 86.824036%, 86.824036%)" offset="0.15625"/><stop stop-opacity="1" stop-color="rgb(87.068176%, 87.068176%, 87.068176%)" offset="0.171875"/><stop stop-opacity="1" stop-color="rgb(87.312317%, 87.312317%, 87.312317%)" offset="0.1875"/><stop stop-opacity="1" stop-color="rgb(87.556458%, 87.556458%, 87.556458%)" offset="0.203125"/><stop stop-opacity="1" stop-color="rgb(87.800598%, 87.800598%, 87.800598%)" offset="0.21875"/><stop stop-opacity="1" stop-color="rgb(88.044739%, 88.044739%, 88.044739%)" offset="0.234375"/><stop stop-opacity="1" stop-color="rgb(88.288879%, 88.288879%, 88.288879%)" offset="0.25"/><stop stop-opacity="1" stop-color="rgb(88.53302%, 88.53302%, 88.53302%)" offset="0.265625"/><stop stop-opacity="1" stop-color="rgb(88.777161%, 88.777161%, 88.777161%)" offset="0.28125"/><stop stop-opacity="1" stop-color="rgb(89.021301%, 89.021301%, 89.021301%)" offset="0.296875"/><stop stop-opacity="1" stop-color="rgb(89.265442%, 89.265442%, 89.265442%)" offset="0.3125"/><stop stop-opacity="1" stop-color="rgb(89.509583%, 89.509583%, 89.509583%)" offset="0.328125"/><stop stop-opacity="1" stop-color="rgb(89.753723%, 89.753723%, 89.753723%)" offset="0.34375"/><stop stop-opacity="1" stop-color="rgb(89.997864%, 89.997864%, 89.997864%)" offset="0.359375"/><stop stop-opacity="1" stop-color="rgb(90.242004%, 90.242004%, 90.242004%)" offset="0.375"/><stop stop-opacity="1" stop-color="rgb(90.486145%, 90.486145%, 90.486145%)" offset="0.390625"/><stop stop-opacity="1" stop-color="rgb(90.730286%, 90.730286%, 90.730286%)" offset="0.40625"/><stop stop-opacity="1" stop-color="rgb(90.974426%, 90.974426%, 90.974426%)" offset="0.421875"/><stop stop-opacity="1" stop-color="rgb(91.218567%, 91.218567%, 91.218567%)" offset="0.4375"/><stop stop-opacity="1" stop-color="rgb(91.462708%, 91.462708%, 91.462708%)" offset="0.453125"/><stop stop-opacity="1" stop-color="rgb(91.706848%, 91.706848%, 91.706848%)" offset="0.46875"/><stop stop-opacity="1" stop-color="rgb(91.950989%, 91.950989%, 91.950989%)" offset="0.484375"/><stop stop-opacity="1" stop-color="rgb(92.195129%, 92.195129%, 92.195129%)" offset="0.5"/><stop stop-opacity="1" stop-color="rgb(92.43927%, 92.43927%, 92.43927%)" offset="0.515625"/><stop stop-opacity="1" stop-color="rgb(92.683411%, 92.683411%, 92.683411%)" offset="0.53125"/><stop stop-opacity="1" stop-color="rgb(92.927551%, 92.927551%, 92.927551%)" offset="0.546875"/><stop stop-opacity="1" stop-color="rgb(93.171692%, 93.171692%, 93.171692%)" offset="0.5625"/><stop stop-opacity="1" stop-color="rgb(93.415833%, 93.415833%, 93.415833%)" offset="0.578125"/><stop stop-opacity="1" stop-color="rgb(93.659973%, 93.659973%, 93.659973%)" offset="0.59375"/><stop stop-opacity="1" stop-color="rgb(93.904114%, 93.904114%, 93.904114%)" offset="0.609375"/><stop stop-opacity="1" stop-color="rgb(94.148254%, 94.148254%, 94.148254%)" offset="0.625"/><stop stop-opacity="1" stop-color="rgb(94.392395%, 94.392395%, 94.392395%)" offset="0.640625"/><stop stop-opacity="1" stop-color="rgb(94.636536%, 94.636536%, 94.636536%)" offset="0.65625"/><stop stop-opacity="1" stop-color="rgb(94.880676%, 94.880676%, 94.880676%)" offset="0.671875"/><stop stop-opacity="1" stop-color="rgb(95.124817%, 95.124817%, 95.124817%)" offset="0.6875"/><stop stop-opacity="1" stop-color="rgb(95.368958%, 95.368958%, 95.368958%)" offset="0.703125"/><stop stop-opacity="1" stop-color="rgb(95.613098%, 95.613098%, 95.613098%)" offset="0.71875"/><stop stop-opacity="1" stop-color="rgb(95.857239%, 95.857239%, 95.857239%)" offset="0.734375"/><stop stop-opacity="1" stop-color="rgb(96.101379%, 96.101379%, 96.101379%)" offset="0.75"/><stop stop-opacity="1" stop-color="rgb(96.34552%, 96.34552%, 96.34552%)" offset="0.765625"/><stop stop-opacity="1" stop-color="rgb(96.589661%, 96.589661%, 96.589661%)" offset="0.78125"/><stop stop-opacity="1" stop-color="rgb(96.833801%, 96.833801%, 96.833801%)" offset="0.796875"/><stop stop-opacity="1" stop-color="rgb(97.077942%, 97.077942%, 97.077942%)" offset="0.8125"/><stop stop-opacity="1" stop-color="rgb(97.322083%, 97.322083%, 97.322083%)" offset="0.828125"/><stop stop-opacity="1" stop-color="rgb(97.566223%, 97.566223%, 97.566223%)" offset="0.84375"/><stop stop-opacity="1" stop-color="rgb(97.810364%, 97.810364%, 97.810364%)" offset="0.859375"/><stop stop-opacity="1" stop-color="rgb(98.054504%, 98.054504%, 98.054504%)" offset="0.875"/><stop stop-opacity="1" stop-color="rgb(98.298645%, 98.298645%, 98.298645%)" offset="0.890625"/><stop stop-opacity="1" stop-color="rgb(98.542786%, 98.542786%, 98.542786%)" offset="0.90625"/><stop stop-opacity="1" stop-color="rgb(98.786926%, 98.786926%, 98.786926%)" offset="0.921875"/><stop stop-opacity="1" stop-color="rgb(99.031067%, 99.031067%, 99.031067%)" offset="0.9375"/><stop stop-opacity="1" stop-color="rgb(99.275208%, 99.275208%, 99.275208%)" offset="0.953125"/><stop stop-opacity="1" stop-color="rgb(99.519348%, 99.519348%, 99.519348%)" offset="0.96875"/><stop stop-opacity="1" stop-color="rgb(99.819946%, 99.819946%, 99.819946%)" offset="1"/></linearGradient></defs><g clip-path="url(#id1)"><path fill="rgb(100%, 100%, 100%)" d="M 0 0 L 127.5 0 L 127.5 135 L 0 135 Z M 0 0 " fill-opacity="1" fill-rule="nonzero"/><path fill="rgb(4.309082%, 40.779114%, 74.899292%)" d="M 0 0 L 127.5 0 L 127.5 127.5 L 0 127.5 Z M 0 0 " fill-opacity="1" fill-rule="nonzero"/><path fill="rgb(100%, 100%, 100%)" d="M 0 0 L 127.5 0 L 127.5 127.5 L 0 127.5 Z M 0 0 " fill-opacity="1" fill-rule="nonzero"/><path fill="rgb(4.309082%, 40.779114%, 74.899292%)" d="M 0 0 L 127.5 0 L 127.5 127.5 L 0 127.5 Z M 0 0 " fill-opacity="1" fill-rule="nonzero"/></g><g clip-path="url(#id2)"><path fill="rgb(85.099792%, 85.099792%, 85.099792%)" d="M 59.480469 55.351562 L 59.480469 42.984375 L 67.964844 42.984375 C 67.964844 42.984375 68.082031 48.773438 65.910156 51.105469 C 63.738281 53.4375 59.480469 55.351562 59.480469 55.351562 Z M 59.480469 55.351562 " fill-opacity="1" fill-rule="nonzero"/></g><g clip-path="url(#id3)"><g clip-path="url(#id4)"><path fill="url(#id5)" d="M 45.347656 43.449219 L 45.347656 65.96875 L 67.976562 65.96875 L 67.976562 43.449219 Z M 45.347656 43.449219 " fill-rule="nonzero"/></g></g><g clip-path="url(#id6)"><path fill="rgb(85.099792%, 85.099792%, 85.099792%)" d="M 67.96875 65.089844 L 67.96875 77.457031 L 59.480469 77.457031 C 59.480469 77.457031 59.367188 71.667969 61.535156 69.335938 C 63.707031 67.007812 67.96875 65.089844 67.96875 65.089844 Z M 67.96875 65.089844 " fill-opacity="1" fill-rule="nonzero"/></g><g clip-path="url(#id7)"><g clip-path="url(#id8)"><path fill="url(#id9)" d="M 82.097656 76.992188 L 82.097656 54.476562 L 59.46875 54.476562 L 59.46875 76.992188 Z M 82.097656 76.992188 " fill-rule="nonzero"/></g></g><g fill="rgb(100%, 100%, 100%)" fill-opacity="1"><g transform="translate(25.786052, 88.58825)"><g><path d="M 3 -2.8125 L 1.84375 -1.640625 L 1.84375 0 L 0.953125 0 L 0.953125 -6.328125 L 1.84375 -6.328125 L 1.84375 -2.796875 L 5.28125 -6.328125 L 6.3125 -6.328125 L 3.609375 -3.484375 L 6.484375 0 L 5.421875 0 Z M 3 -2.8125 "/></g></g></g><g fill="rgb(100%, 100%, 100%)" fill-opacity="1"><g transform="translate(32.887854, 88.58825)"><g><path d="M 0.953125 -6.328125 L 1.84375 -6.328125 L 1.84375 -0.78125 L 5.28125 -0.78125 L 5.28125 0 L 0.953125 0 Z M 0.953125 -6.328125 "/></g></g></g><g fill="rgb(100%, 100%, 100%)" fill-opacity="1"><g transform="translate(38.860262, 88.58825)"><g><path d="M 0.953125 -6.328125 L 1.84375 -6.328125 L 1.84375 0 L 0.953125 0 Z M 0.953125 -6.328125 "/></g></g></g><g fill="rgb(100%, 100%, 100%)" fill-opacity="1"><g transform="translate(42.266699, 88.58825)"><g><path d="M 6.390625 -6.328125 L 6.390625 0 L 5.640625 0 L 1.84375 -4.71875 L 1.84375 0 L 0.953125 0 L 0.953125 -6.328125 L 1.6875 -6.328125 L 5.484375 -1.609375 L 5.484375 -6.328125 Z M 6.390625 -6.328125 "/></g></g></g><g fill="rgb(100%, 100%, 100%)" fill-opacity="1"><g transform="translate(50.208761, 88.58825)"><g><path d="M 0.953125 -6.328125 L 1.84375 -6.328125 L 1.84375 0 L 0.953125 0 Z M 0.953125 -6.328125 "/></g></g></g><g fill="rgb(100%, 100%, 100%)" fill-opacity="1"><g transform="translate(53.615198, 88.58825)"><g><path d="M 3 -2.8125 L 1.84375 -1.640625 L 1.84375 0 L 0.953125 0 L 0.953125 -6.328125 L 1.84375 -6.328125 L 1.84375 -2.796875 L 5.28125 -6.328125 L 6.3125 -6.328125 L 3.609375 -3.484375 L 6.484375 0 L 5.421875 0 Z M 3 -2.8125 "/></g></g></g><g fill="rgb(100%, 100%, 100%)" fill-opacity="1"><g transform="translate(60.717, 88.58825)"><g/></g></g><g fill="rgb(100%, 100%, 100%)" fill-opacity="1"><g transform="translate(63.753003, 88.58825)"><g><path d="M 3.40625 -6.328125 C 4.226562 -6.328125 4.875 -6.128906 5.34375 -5.734375 C 5.8125 -5.335938 6.046875 -4.800781 6.046875 -4.125 C 6.046875 -3.4375 5.8125 -2.894531 5.34375 -2.5 C 4.875 -2.113281 4.226562 -1.921875 3.40625 -1.921875 L 1.84375 -1.921875 L 1.84375 0 L 0.953125 0 L 0.953125 -6.328125 Z M 3.390625 -2.703125 C 3.960938 -2.703125 4.394531 -2.820312 4.6875 -3.0625 C 4.988281 -3.3125 5.140625 -3.664062 5.140625 -4.125 C 5.140625 -4.570312 4.988281 -4.914062 4.6875 -5.15625 C 4.394531 -5.40625 3.960938 -5.53125 3.390625 -5.53125 L 1.84375 -5.53125 L 1.84375 -2.703125 Z M 3.390625 -2.703125 "/></g></g></g><g fill="rgb(100%, 100%, 100%)" fill-opacity="1"><g transform="translate(70.881905, 88.58825)"><g><path d="M 0.953125 -6.328125 L 1.84375 -6.328125 L 1.84375 0 L 0.953125 0 Z M 0.953125 -6.328125 "/></g></g></g><g fill="rgb(100%, 100%, 100%)" fill-opacity="1"><g transform="translate(74.288342, 88.58825)"><g><path d="M 6.390625 -6.328125 L 6.390625 0 L 5.640625 0 L 1.84375 -4.71875 L 1.84375 0 L 0.953125 0 L 0.953125 -6.328125 L 1.6875 -6.328125 L 5.484375 -1.609375 L 5.484375 -6.328125 Z M 6.390625 -6.328125 "/></g></g></g><g fill="rgb(100%, 100%, 100%)" fill-opacity="1"><g transform="translate(82.230404, 88.58825)"><g><path d="M 2.203125 -5.53125 L 0.03125 -5.53125 L 0.03125 -6.328125 L 5.265625 -6.328125 L 5.265625 -5.53125 L 3.09375 -5.53125 L 3.09375 0 L 2.203125 0 Z M 2.203125 -5.53125 "/></g></g></g><g fill="rgb(100%, 100%, 100%)" fill-opacity="1"><g transform="translate(88.139572, 88.58825)"><g><path d="M 4.96875 -1.578125 L 1.609375 -1.578125 L 0.921875 0 L -0.015625 0 L 2.859375 -6.328125 L 3.75 -6.328125 L 6.625 0 L 5.671875 0 Z M 4.65625 -2.296875 L 3.296875 -5.40625 L 1.9375 -2.296875 Z M 4.65625 -2.296875 "/></g></g></g><g fill="rgb(100%, 100%, 100%)" fill-opacity="1"><g transform="translate(95.358825, 88.58825)"><g><path d="M 5.171875 0 L 3.8125 -1.9375 C 3.644531 -1.925781 3.507812 -1.921875 3.40625 -1.921875 L 1.84375 -1.921875 L 1.84375 0 L 0.953125 0 L 0.953125 -6.328125 L 3.40625 -6.328125 C 4.226562 -6.328125 4.875 -6.128906 5.34375 -5.734375 C 5.8125 -5.335938 6.046875 -4.800781 6.046875 -4.125 C 6.046875 -3.632812 5.925781 -3.21875 5.6875 -2.875 C 5.445312 -2.53125 5.101562 -2.28125 4.65625 -2.125 L 6.15625 0 Z M 3.390625 -2.6875 C 3.960938 -2.6875 4.394531 -2.8125 4.6875 -3.0625 C 4.988281 -3.3125 5.140625 -3.664062 5.140625 -4.125 C 5.140625 -4.570312 4.988281 -4.914062 4.6875 -5.15625 C 4.394531 -5.40625 3.960938 -5.53125 3.390625 -5.53125 L 1.84375 -5.53125 L 1.84375 -2.6875 Z M 3.390625 -2.6875 "/></g></g></g><g fill="rgb(100%, 100%, 100%)" fill-opacity="1"><g transform="translate(38.891033, 95.680021)"><g><path d="M 1.1875 -1.109375 L 0.734375 -0.640625 L 0.734375 0 L 0.375 0 L 0.375 -2.5 L 0.734375 -2.5 L 0.734375 -1.09375 L 2.078125 -2.5 L 2.484375 -2.5 L 1.421875 -1.375 L 2.5625 0 L 2.140625 0 Z M 1.1875 -1.109375 "/></g></g></g><g fill="rgb(100%, 100%, 100%)" fill-opacity="1"><g transform="translate(42.385759, 95.680021)"><g><path d="M 0.375 -2.5 L 0.734375 -2.5 L 0.734375 -0.3125 L 2.078125 -0.3125 L 2.078125 0 L 0.375 0 Z M 0.375 -2.5 "/></g></g></g><g fill="rgb(100%, 100%, 100%)" fill-opacity="1"><g transform="translate(45.434271, 95.680021)"><g><path d="M 0.375 -2.5 L 0.734375 -2.5 L 0.734375 0 L 0.375 0 Z M 0.375 -2.5 "/></g></g></g><g fill="rgb(100%, 100%, 100%)" fill-opacity="1"><g transform="translate(47.468992, 95.680021)"><g><path d="M 2.515625 -2.5 L 2.515625 0 L 2.21875 0 L 0.734375 -1.859375 L 0.734375 0 L 0.375 0 L 0.375 -2.5 L 0.671875 -2.5 L 2.15625 -0.640625 L 2.15625 -2.5 Z M 2.515625 -2.5 "/></g></g></g><g fill="rgb(100%, 100%, 100%)" fill-opacity="1"><g transform="translate(51.295695, 95.680021)"><g><path d="M 0.375 -2.5 L 0.734375 -2.5 L 0.734375 0 L 0.375 0 Z M 0.375 -2.5 "/></g></g></g><g fill="rgb(100%, 100%, 100%)" fill-opacity="1"><g transform="translate(53.330415, 95.680021)"><g><path d="M 1.1875 -1.109375 L 0.734375 -0.640625 L 0.734375 0 L 0.375 0 L 0.375 -2.5 L 0.734375 -2.5 L 0.734375 -1.09375 L 2.078125 -2.5 L 2.484375 -2.5 L 1.421875 -1.375 L 2.5625 0 L 2.140625 0 Z M 1.1875 -1.109375 "/></g></g></g><g fill="rgb(100%, 100%, 100%)" fill-opacity="1"><g transform="translate(56.82514, 95.680021)"><g/></g></g><g fill="rgb(100%, 100%, 100%)" fill-opacity="1"><g transform="translate(58.713503, 95.680021)"><g><path d="M 1.1875 -1.109375 L 0.734375 -0.640625 L 0.734375 0 L 0.375 0 L 0.375 -2.5 L 0.734375 -2.5 L 0.734375 -1.09375 L 2.078125 -2.5 L 2.484375 -2.5 L 1.421875 -1.375 L 2.5625 0 L 2.140625 0 Z M 1.1875 -1.109375 "/></g></g></g><g fill="rgb(100%, 100%, 100%)" fill-opacity="1"><g transform="translate(62.208229, 95.680021)"><g><path d="M 2.1875 -0.3125 L 2.1875 0 L 0.375 0 L 0.375 -2.5 L 2.140625 -2.5 L 2.140625 -2.1875 L 0.734375 -2.1875 L 0.734375 -1.421875 L 1.984375 -1.421875 L 1.984375 -1.109375 L 0.734375 -1.109375 L 0.734375 -0.3125 Z M 2.1875 -0.3125 "/></g></g></g><g fill="rgb(100%, 100%, 100%)" fill-opacity="1"><g transform="translate(65.528037, 95.680021)"><g><path d="M 1.09375 0.03125 C 0.90625 0.03125 0.722656 0.00390625 0.546875 -0.046875 C 0.378906 -0.109375 0.242188 -0.1875 0.140625 -0.28125 L 0.28125 -0.5625 C 0.375 -0.476562 0.492188 -0.410156 0.640625 -0.359375 C 0.785156 -0.304688 0.9375 -0.28125 1.09375 -0.28125 C 1.300781 -0.28125 1.457031 -0.3125 1.5625 -0.375 C 1.664062 -0.445312 1.71875 -0.539062 1.71875 -0.65625 C 1.71875 -0.738281 1.6875 -0.804688 1.625 -0.859375 C 1.570312 -0.921875 1.503906 -0.960938 1.421875 -0.984375 C 1.335938 -1.015625 1.222656 -1.050781 1.078125 -1.09375 C 0.890625 -1.132812 0.738281 -1.175781 0.625 -1.21875 C 0.507812 -1.269531 0.410156 -1.34375 0.328125 -1.4375 C 0.242188 -1.53125 0.203125 -1.65625 0.203125 -1.8125 C 0.203125 -1.945312 0.238281 -2.066406 0.3125 -2.171875 C 0.382812 -2.273438 0.488281 -2.359375 0.625 -2.421875 C 0.769531 -2.484375 0.945312 -2.515625 1.15625 -2.515625 C 1.300781 -2.515625 1.445312 -2.492188 1.59375 -2.453125 C 1.738281 -2.421875 1.863281 -2.367188 1.96875 -2.296875 L 1.84375 -2.015625 C 1.738281 -2.078125 1.625 -2.125 1.5 -2.15625 C 1.382812 -2.195312 1.269531 -2.21875 1.15625 -2.21875 C 0.957031 -2.21875 0.804688 -2.179688 0.703125 -2.109375 C 0.609375 -2.035156 0.5625 -1.941406 0.5625 -1.828125 C 0.5625 -1.742188 0.585938 -1.671875 0.640625 -1.609375 C 0.703125 -1.554688 0.773438 -1.515625 0.859375 -1.484375 C 0.941406 -1.460938 1.054688 -1.429688 1.203125 -1.390625 C 1.390625 -1.347656 1.539062 -1.300781 1.65625 -1.25 C 1.769531 -1.207031 1.863281 -1.140625 1.9375 -1.046875 C 2.019531 -0.960938 2.0625 -0.84375 2.0625 -0.6875 C 2.0625 -0.550781 2.023438 -0.425781 1.953125 -0.3125 C 1.890625 -0.207031 1.785156 -0.125 1.640625 -0.0625 C 1.492188 0 1.3125 0.03125 1.09375 0.03125 Z M 1.09375 0.03125 "/></g></g></g><g fill="rgb(100%, 100%, 100%)" fill-opacity="1"><g transform="translate(68.672933, 95.680021)"><g><path d="M 2.1875 -0.3125 L 2.1875 0 L 0.375 0 L 0.375 -2.5 L 2.140625 -2.5 L 2.140625 -2.1875 L 0.734375 -2.1875 L 0.734375 -1.421875 L 1.984375 -1.421875 L 1.984375 -1.109375 L 0.734375 -1.109375 L 0.734375 -0.3125 Z M 2.1875 -0.3125 "/></g></g></g><g fill="rgb(100%, 100%, 100%)" fill-opacity="1"><g transform="translate(71.992742, 95.680021)"><g><path d="M 2.515625 -2.5 L 2.515625 0 L 2.15625 0 L 2.15625 -1.109375 L 0.734375 -1.109375 L 0.734375 0 L 0.375 0 L 0.375 -2.5 L 0.734375 -2.5 L 0.734375 -1.421875 L 2.15625 -1.421875 L 2.15625 -2.5 Z M 2.515625 -2.5 "/></g></g></g><g fill="rgb(100%, 100%, 100%)" fill-opacity="1"><g transform="translate(75.819446, 95.680021)"><g><path d="M 1.96875 -0.625 L 0.640625 -0.625 L 0.359375 0 L 0 0 L 1.125 -2.5 L 1.484375 -2.5 L 2.609375 0 L 2.234375 0 Z M 1.84375 -0.90625 L 1.296875 -2.125 L 0.765625 -0.90625 Z M 1.84375 -0.90625 "/></g></g></g><g fill="rgb(100%, 100%, 100%)" fill-opacity="1"><g transform="translate(79.360575, 95.680021)"><g><path d="M 0.875 -2.1875 L 0.015625 -2.1875 L 0.015625 -2.5 L 2.078125 -2.5 L 2.078125 -2.1875 L 1.21875 -2.1875 L 1.21875 0 L 0.875 0 Z M 0.875 -2.1875 "/></g></g></g><g fill="rgb(100%, 100%, 100%)" fill-opacity="1"><g transform="translate(82.384098, 95.680021)"><g><path d="M 1.96875 -0.625 L 0.640625 -0.625 L 0.359375 0 L 0 0 L 1.125 -2.5 L 1.484375 -2.5 L 2.609375 0 L 2.234375 0 Z M 1.84375 -0.90625 L 1.296875 -2.125 L 0.765625 -0.90625 Z M 1.84375 -0.90625 "/></g></g></g><g fill="rgb(100%, 100%, 100%)" fill-opacity="1"><g transform="translate(85.925225, 95.680021)"><g><path d="M 2.515625 -2.5 L 2.515625 0 L 2.21875 0 L 0.734375 -1.859375 L 0.734375 0 L 0.375 0 L 0.375 -2.5 L 0.671875 -2.5 L 2.15625 -0.640625 L 2.15625 -2.5 Z M 2.515625 -2.5 "/></g></g></g><g fill="rgb(100%, 100%, 100%)" fill-opacity="1"><g transform="translate(47.129935, 75.711546)"><g><path d="M -1.96875 0 L -1.109375 -0.015625 L -0.5625 -0.5625 L -0.34375 -0.34375 L -2.4375 1.734375 L -2.65625 1.515625 L -1.390625 0.265625 L -3.875 0.28125 L -4.125 0.03125 L -2.28125 0 L -2.09375 -2.109375 L -1.84375 -1.859375 Z M -1.96875 0 "/></g></g></g><g fill="rgb(100%, 100%, 100%)" fill-opacity="1"><g transform="translate(44.033458, 72.38782)"><g><path d="M -1.671875 -1.953125 L -1.453125 -2.109375 L -0.28125 -0.40625 L -2.71875 1.265625 L -3.859375 -0.390625 L -3.640625 -0.53125 L -2.671875 0.875 L -1.796875 0.265625 L -2.671875 -1 L -2.453125 -1.15625 L -1.578125 0.109375 L -0.671875 -0.5 Z M -1.671875 -1.953125 "/></g></g></g><g fill="rgb(100%, 100%, 100%)" fill-opacity="1"><g transform="translate(41.670514, 68.712563)"><g><path d="M -0.515625 -1.1875 C -0.421875 -0.988281 -0.363281 -0.78125 -0.34375 -0.5625 C -0.332031 -0.351562 -0.351562 -0.175781 -0.40625 -0.03125 L -0.671875 -0.046875 C -0.617188 -0.179688 -0.597656 -0.34375 -0.609375 -0.53125 C -0.628906 -0.726562 -0.679688 -0.910156 -0.765625 -1.078125 C -0.867188 -1.316406 -0.992188 -1.476562 -1.140625 -1.5625 C -1.285156 -1.644531 -1.425781 -1.648438 -1.5625 -1.578125 C -1.664062 -1.535156 -1.734375 -1.460938 -1.765625 -1.359375 C -1.804688 -1.265625 -1.820312 -1.160156 -1.8125 -1.046875 C -1.800781 -0.941406 -1.773438 -0.789062 -1.734375 -0.59375 C -1.710938 -0.375 -1.695312 -0.191406 -1.6875 -0.046875 C -1.675781 0.0859375 -1.695312 0.222656 -1.75 0.359375 C -1.800781 0.492188 -1.910156 0.597656 -2.078125 0.671875 C -2.210938 0.734375 -2.351562 0.753906 -2.5 0.734375 C -2.644531 0.710938 -2.785156 0.640625 -2.921875 0.515625 C -3.054688 0.398438 -3.175781 0.234375 -3.28125 0.015625 C -3.34375 -0.128906 -3.382812 -0.285156 -3.40625 -0.453125 C -3.4375 -0.617188 -3.441406 -0.773438 -3.421875 -0.921875 L -3.140625 -0.9375 C -3.171875 -0.78125 -3.175781 -0.628906 -3.15625 -0.484375 C -3.132812 -0.347656 -3.097656 -0.21875 -3.046875 -0.09375 C -2.929688 0.144531 -2.800781 0.300781 -2.65625 0.375 C -2.507812 0.445312 -2.363281 0.445312 -2.21875 0.375 C -2.113281 0.332031 -2.039062 0.265625 -2 0.171875 C -1.957031 0.078125 -1.941406 -0.0234375 -1.953125 -0.140625 C -1.972656 -0.253906 -2 -0.40625 -2.03125 -0.59375 C -2.070312 -0.8125 -2.097656 -0.988281 -2.109375 -1.125 C -2.117188 -1.269531 -2.09375 -1.40625 -2.03125 -1.53125 C -1.976562 -1.664062 -1.867188 -1.769531 -1.703125 -1.84375 C -1.578125 -1.90625 -1.441406 -1.925781 -1.296875 -1.90625 C -1.148438 -1.882812 -1.007812 -1.8125 -0.875 -1.6875 C -0.738281 -1.570312 -0.617188 -1.40625 -0.515625 -1.1875 Z M -0.515625 -1.1875 "/></g></g></g><g fill="rgb(100%, 100%, 100%)" fill-opacity="1"><g transform="translate(40.037367, 64.901722)"><g><path d="M -0.921875 -2.40625 L -0.671875 -2.46875 L -0.125 -0.46875 L -2.96875 0.296875 L -3.5 -1.640625 L -3.25 -1.703125 L -2.796875 -0.0625 L -1.765625 -0.34375 L -2.171875 -1.828125 L -1.921875 -1.890625 L -1.515625 -0.40625 L -0.453125 -0.703125 Z M -0.921875 -2.40625 "/></g></g></g><g fill="rgb(100%, 100%, 100%)" fill-opacity="1"><g transform="translate(39.012468, 60.671616)"><g><path d="M -3.171875 -2.703125 L -0.234375 -2.9375 L -0.203125 -2.625 L -1.5625 -2.515625 L -1.421875 -0.6875 L -0.0625 -0.796875 L -0.03125 -0.484375 L -2.96875 -0.25 L -3 -0.5625 L -1.703125 -0.671875 L -1.84375 -2.5 L -3.140625 -2.390625 Z M -3.171875 -2.703125 "/></g></g></g><g fill="rgb(100%, 100%, 100%)" fill-opacity="1"><g transform="translate(38.787378, 55.721502)"><g><path d="M -0.515625 -2.40625 L -0.703125 -0.78125 L 0.03125 -0.328125 L 0 -0.015625 L -2.78125 -1.671875 L -2.75 -1.984375 L 0.328125 -3 L 0.296875 -2.671875 Z M -0.796875 -2.3125 L -2.4375 -1.796875 L -0.953125 -0.90625 Z M -0.796875 -2.3125 "/></g></g></g><g fill="rgb(100%, 100%, 100%)" fill-opacity="1"><g transform="translate(39.451173, 51.19699)"><g><path d="M -2.28125 -1.765625 L -2.578125 -0.765625 L -2.84375 -0.84375 L -2.171875 -3.140625 L -1.90625 -3.0625 L -2.203125 -2.0625 L 0.375 -1.3125 L 0.296875 -1.015625 Z M -2.28125 -1.765625 "/></g></g></g><g fill="rgb(100%, 100%, 100%)" fill-opacity="1"><g transform="translate(40.657423, 47.413738)"><g><path d="M 0.3125 -2.4375 L -0.40625 -0.96875 L 0.140625 -0.296875 L 0 -0.015625 L -2.0625 -2.515625 L -1.921875 -2.796875 L 1.3125 -2.71875 L 1.171875 -2.421875 Z M 0.03125 -2.453125 L -1.703125 -2.5 L -0.59375 -1.171875 Z M 0.03125 -2.453125 "/></g></g></g><g fill="rgb(100%, 100%, 100%)" fill-opacity="1"><g transform="translate(42.758627, 43.376872)"><g><path d="M -0.59375 -4.125 L 1.765625 -2.359375 L 1.609375 -2.15625 L -1.4375 -2.078125 L 0.484375 -0.640625 L 0.296875 -0.390625 L -2.0625 -2.15625 L -1.921875 -2.359375 L 1.125 -2.453125 L -0.78125 -3.875 Z M -0.59375 -4.125 "/></g></g></g><g fill="rgb(100%, 100%, 100%)" fill-opacity="1"><g transform="translate(47.864685, 37.652897)"><g><path d="M 1.421875 -2 L 0.109375 -1.03125 L 0.265625 -0.1875 L 0.015625 -0.015625 L -0.640625 -3.1875 L -0.390625 -3.375 L 2.4375 -1.78125 L 2.171875 -1.578125 Z M 1.1875 -2.15625 L -0.328125 -3.015625 L 0.03125 -1.3125 Z M 1.1875 -2.15625 "/></g></g></g><g fill="rgb(100%, 100%, 100%)" fill-opacity="1"><g transform="translate(51.614177, 35.073145)"><g><path d="M 1.40625 -3.9375 L 2.671875 -1.265625 L 2.4375 -1.140625 L -0.296875 -2.5 L 0.71875 -0.34375 L 0.4375 -0.203125 L -0.828125 -2.875 L -0.59375 -2.984375 L 2.15625 -1.640625 L 1.125 -3.796875 Z M 1.40625 -3.9375 "/></g></g></g><g fill="rgb(100%, 100%, 100%)" fill-opacity="1"><g transform="translate(56.147845, 33.098037)"><g><path d="M -0.234375 -2.96875 L 0.9375 -3.265625 C 1.238281 -3.335938 1.519531 -3.34375 1.78125 -3.28125 C 2.039062 -3.21875 2.257812 -3.09375 2.4375 -2.90625 C 2.625 -2.71875 2.75 -2.488281 2.8125 -2.21875 C 2.882812 -1.9375 2.882812 -1.671875 2.8125 -1.421875 C 2.738281 -1.171875 2.597656 -0.957031 2.390625 -0.78125 C 2.191406 -0.601562 1.941406 -0.476562 1.640625 -0.40625 L 0.46875 -0.109375 Z M 1.5625 -0.671875 C 1.800781 -0.722656 2.003906 -0.820312 2.171875 -0.96875 C 2.335938 -1.125 2.445312 -1.300781 2.5 -1.5 C 2.5625 -1.695312 2.5625 -1.910156 2.5 -2.140625 C 2.445312 -2.367188 2.347656 -2.5625 2.203125 -2.71875 C 2.066406 -2.875 1.890625 -2.972656 1.671875 -3.015625 C 1.453125 -3.066406 1.222656 -3.066406 0.984375 -3.015625 L 0.140625 -2.796875 L 0.71875 -0.453125 Z M 1.5625 -0.671875 "/></g></g></g><g fill="rgb(100%, 100%, 100%)" fill-opacity="1"><g transform="translate(61.046805, 32.059062)"><g><path d="M 2.28125 -0.90625 L 0.640625 -0.8125 L 0.328125 -0.015625 L 0.015625 0 L 1.203125 -3.015625 L 1.515625 -3.046875 L 3.015625 -0.15625 L 2.6875 -0.140625 Z M 2.171875 -1.15625 L 1.375 -2.703125 L 0.75 -1.09375 Z M 2.171875 -1.15625 "/></g></g></g><g fill="rgb(100%, 100%, 100%)" fill-opacity="1"><g transform="translate(68.319947, 32.302358)"><g><path d="M 2.25 -2.5 C 2.613281 -2.40625 2.878906 -2.242188 3.046875 -2.015625 C 3.210938 -1.796875 3.253906 -1.53125 3.171875 -1.21875 C 3.097656 -0.914062 2.9375 -0.703125 2.6875 -0.578125 C 2.4375 -0.453125 2.128906 -0.4375 1.765625 -0.53125 L 1 -0.71875 L 0.78125 0.1875 L 0.46875 0.109375 L 1.171875 -2.765625 Z M 1.8125 -0.796875 C 2.09375 -0.722656 2.320312 -0.726562 2.5 -0.8125 C 2.6875 -0.90625 2.804688 -1.0625 2.859375 -1.28125 C 2.921875 -1.519531 2.890625 -1.71875 2.765625 -1.875 C 2.648438 -2.039062 2.453125 -2.160156 2.171875 -2.234375 L 1.421875 -2.421875 L 1.0625 -0.984375 Z M 1.8125 -0.796875 "/></g></g></g><g fill="rgb(100%, 100%, 100%)" fill-opacity="1"><g transform="translate(72.718048, 33.518606)"><g><path d="M 2.28125 1.03125 L 2.0625 -0.125 C 1.976562 -0.144531 1.90625 -0.171875 1.84375 -0.203125 L 1.125 -0.53125 L 0.734375 0.328125 L 0.4375 0.203125 L 1.640625 -2.484375 L 2.65625 -2.03125 C 3 -1.875 3.226562 -1.671875 3.34375 -1.421875 C 3.46875 -1.171875 3.46875 -0.90625 3.34375 -0.625 C 3.25 -0.414062 3.113281 -0.265625 2.9375 -0.171875 C 2.757812 -0.078125 2.566406 -0.0351562 2.359375 -0.046875 L 2.59375 1.171875 Z M 1.9375 -0.453125 C 2.207031 -0.328125 2.4375 -0.289062 2.625 -0.34375 C 2.820312 -0.40625 2.96875 -0.539062 3.0625 -0.75 C 3.15625 -0.96875 3.15625 -1.164062 3.0625 -1.34375 C 2.976562 -1.53125 2.800781 -1.6875 2.53125 -1.8125 L 1.828125 -2.125 L 1.234375 -0.765625 Z M 1.9375 -0.453125 "/></g></g></g><g fill="rgb(100%, 100%, 100%)" fill-opacity="1"><g transform="translate(76.85754, 35.57888)"><g><path d="M 2 -2.21875 L 2.265625 -2.046875 L 0.671875 0.4375 L 0.40625 0.265625 Z M 2 -2.21875 "/></g></g></g><g fill="rgb(100%, 100%, 100%)" fill-opacity="1"><g transform="translate(79.229245, 37.14213)"><g><path d="M 1.296875 1.1875 C 1.078125 1 0.921875 0.78125 0.828125 0.53125 C 0.742188 0.28125 0.726562 0.0234375 0.78125 -0.234375 C 0.832031 -0.503906 0.953125 -0.75 1.140625 -0.96875 C 1.328125 -1.175781 1.550781 -1.316406 1.8125 -1.390625 C 2.070312 -1.472656 2.328125 -1.484375 2.578125 -1.421875 C 2.835938 -1.359375 3.078125 -1.234375 3.296875 -1.046875 C 3.515625 -0.847656 3.671875 -0.617188 3.765625 -0.359375 C 3.859375 -0.109375 3.875 0.140625 3.8125 0.390625 C 3.757812 0.648438 3.640625 0.882812 3.453125 1.09375 C 3.265625 1.3125 3.039062 1.460938 2.78125 1.546875 C 2.53125 1.640625 2.273438 1.648438 2.015625 1.578125 C 1.753906 1.515625 1.515625 1.382812 1.296875 1.1875 Z M 1.484375 0.984375 C 1.660156 1.148438 1.851562 1.253906 2.0625 1.296875 C 2.269531 1.347656 2.476562 1.335938 2.6875 1.265625 C 2.894531 1.203125 3.078125 1.082031 3.234375 0.90625 C 3.390625 0.738281 3.488281 0.546875 3.53125 0.328125 C 3.570312 0.117188 3.554688 -0.0820312 3.484375 -0.28125 C 3.410156 -0.488281 3.285156 -0.675781 3.109375 -0.84375 C 2.941406 -0.988281 2.753906 -1.082031 2.546875 -1.125 C 2.335938 -1.175781 2.128906 -1.164062 1.921875 -1.09375 C 1.710938 -1.03125 1.53125 -0.914062 1.375 -0.75 C 1.21875 -0.570312 1.117188 -0.375 1.078125 -0.15625 C 1.035156 0.0507812 1.050781 0.253906 1.125 0.453125 C 1.195312 0.660156 1.316406 0.835938 1.484375 0.984375 Z M 1.484375 0.984375 "/></g></g></g><g fill="rgb(100%, 100%, 100%)" fill-opacity="1"><g transform="translate(82.887048, 40.63958)"><g><path d="M 1.515625 1.984375 L 1.875 0.875 C 1.8125 0.820312 1.757812 0.765625 1.71875 0.703125 L 1.234375 0.078125 L 0.484375 0.640625 L 0.296875 0.390625 L 2.65625 -1.390625 L 3.328125 -0.515625 C 3.546875 -0.210938 3.644531 0.078125 3.625 0.359375 C 3.613281 0.640625 3.484375 0.875 3.234375 1.0625 C 3.046875 1.195312 2.851562 1.257812 2.65625 1.25 C 2.457031 1.25 2.269531 1.191406 2.09375 1.078125 L 1.71875 2.265625 Z M 1.90625 0.515625 C 2.082031 0.753906 2.269531 0.894531 2.46875 0.9375 C 2.664062 0.988281 2.859375 0.945312 3.046875 0.8125 C 3.234375 0.664062 3.332031 0.488281 3.34375 0.28125 C 3.351562 0.0820312 3.269531 -0.132812 3.09375 -0.375 L 2.625 -0.984375 L 1.4375 -0.09375 Z M 1.90625 0.515625 "/></g></g></g><g fill="rgb(100%, 100%, 100%)" fill-opacity="1"><g transform="translate(85.532511, 44.432624)"><g><path d="M 2.828125 -1 L 2.96875 -0.71875 L 0.375 0.703125 L 0.234375 0.421875 Z M 2.828125 -1 "/></g></g></g><g fill="rgb(100%, 100%, 100%)" fill-opacity="1"><g transform="translate(86.844238, 46.979391)"><g><path d="M 2.890625 0.046875 L 2.515625 -0.9375 L 2.765625 -1.03125 L 3.625 1.203125 L 3.375 1.296875 L 3 0.3125 L 0.484375 1.265625 L 0.375 1 Z M 2.890625 0.046875 "/></g></g></g><g fill="rgb(100%, 100%, 100%)" fill-opacity="1"><g transform="translate(88.1535, 50.728254)"><g><path d="M 1.203125 2.125 L 0.890625 0.515625 L 0.0625 0.328125 L 0 0.015625 L 3.171875 0.765625 L 3.21875 1.078125 L 0.578125 2.953125 L 0.515625 2.640625 Z M 1.453125 1.96875 L 2.875 0.984375 L 1.1875 0.578125 Z M 1.453125 1.96875 "/></g></g></g><g fill="rgb(100%, 100%, 100%)" fill-opacity="1"><g transform="translate(88.876572, 55.238639)"><g><path d="M 0 1.296875 C -0.0078125 1.078125 0.015625 0.863281 0.078125 0.65625 C 0.148438 0.457031 0.242188 0.304688 0.359375 0.203125 L 0.59375 0.3125 C 0.5 0.414062 0.414062 0.554688 0.34375 0.734375 C 0.28125 0.921875 0.253906 1.109375 0.265625 1.296875 C 0.265625 1.554688 0.3125 1.75 0.40625 1.875 C 0.507812 2.007812 0.640625 2.078125 0.796875 2.078125 C 0.910156 2.078125 1.003906 2.039062 1.078125 1.96875 C 1.148438 1.894531 1.203125 1.804688 1.234375 1.703125 C 1.273438 1.597656 1.316406 1.445312 1.359375 1.25 C 1.410156 1.03125 1.460938 0.851562 1.515625 0.71875 C 1.566406 0.582031 1.640625 0.46875 1.734375 0.375 C 1.835938 0.28125 1.984375 0.226562 2.171875 0.21875 C 2.316406 0.21875 2.453125 0.253906 2.578125 0.328125 C 2.710938 0.410156 2.816406 0.53125 2.890625 0.6875 C 2.960938 0.851562 3.003906 1.054688 3.015625 1.296875 C 3.015625 1.460938 2.988281 1.628906 2.9375 1.796875 C 2.894531 1.960938 2.835938 2.109375 2.765625 2.234375 L 2.515625 2.125 C 2.585938 2 2.644531 1.863281 2.6875 1.71875 C 2.726562 1.582031 2.75 1.445312 2.75 1.3125 C 2.738281 1.050781 2.679688 0.851562 2.578125 0.71875 C 2.472656 0.59375 2.34375 0.53125 2.1875 0.53125 C 2.070312 0.539062 1.976562 0.582031 1.90625 0.65625 C 1.832031 0.726562 1.773438 0.816406 1.734375 0.921875 C 1.703125 1.035156 1.671875 1.179688 1.640625 1.359375 C 1.578125 1.578125 1.519531 1.753906 1.46875 1.890625 C 1.414062 2.023438 1.335938 2.140625 1.234375 2.234375 C 1.140625 2.328125 1.003906 2.375 0.828125 2.375 C 0.679688 2.375 0.546875 2.335938 0.421875 2.265625 C 0.296875 2.191406 0.191406 2.070312 0.109375 1.90625 C 0.0351562 1.738281 0 1.535156 0 1.296875 Z M 0 1.296875 "/></g></g></g><g fill="rgb(100%, 100%, 100%)" fill-opacity="1"><g transform="translate(88.430174, 62.083386)"><g><path d="M 0.984375 1.703125 L 0.546875 0.96875 L -0.203125 0.765625 L -0.125 0.46875 L 2.71875 1.234375 L 2.640625 1.53125 L 0.921875 1.078125 L 2.1875 3.203125 L 2.09375 3.5625 L 1.125 1.96875 L -0.78125 2.859375 L -0.6875 2.515625 Z M 0.984375 1.703125 "/></g></g></g><g fill="rgb(100%, 100%, 100%)" fill-opacity="1"><g transform="translate(87.112319, 66.424852)"><g><path d="M -0.296875 2.4375 L 0.40625 0.96875 L -0.140625 0.296875 L 0 0.015625 L 2.09375 2.5 L 1.953125 2.78125 L -1.296875 2.71875 L -1.15625 2.421875 Z M -0.015625 2.453125 L 1.71875 2.5 L 0.59375 1.171875 Z M -0.015625 2.453125 "/></g></g></g><g fill="rgb(100%, 100%, 100%)" fill-opacity="1"><g transform="translate(85.066312, 70.476681)"><g><path d="M 0.21875 4.609375 L -2.140625 2.828125 L -1.953125 2.59375 L -0.0625 4.015625 L -0.96875 1.890625 L -0.875 1.765625 L 1.40625 2.03125 L -0.46875 0.625 L -0.296875 0.390625 L 2.0625 2.171875 L 1.921875 2.375 L -0.609375 2.078125 L 0.375 4.40625 Z M 0.21875 4.609375 "/></g></g></g><g fill="rgb(100%, 100%, 100%)" fill-opacity="1"><g transform="translate(81.512392, 74.777687)"><g><path d="M 1.671875 2.46875 L 1.453125 2.6875 L -0.578125 0.546875 L -0.359375 0.328125 Z M 1.671875 2.46875 "/></g></g></g></svg>